<svg xmlns="http://www.w3.org/2000/svg" width="495" height="195" viewBox="0 0 495 195" font-family="ui-monospace,SFMono-Regular,Menlo,Consolas,monospace" role="img"><defs><linearGradient id="bgac" x1="0" y1="0" x2="0" y2="1"><stop offset="0" stop-color="#111722"/><stop offset="1" stop-color="#0d1117"/></linearGradient></defs><rect width="495" height="195" rx="12" fill="url(#bgac)"/><rect x="0.5" y="0.5" width="494" height="194" rx="12" fill="none" stroke="#30363d" stroke-width="1"/><line x1="0" y1="28.0" x2="495" y2="28.0" stroke="#30363d"/><circle cx="18" cy="14.0" r="4.5" fill="#ff5f56"/><circle cx="33" cy="14.0" r="4.5" fill="#ffbd2e"/><circle cx="48" cy="14.0" r="4.5" fill="#27c93f"/><text x="247.5" y="17.9" fill="#7d8590" font-size="11.5" text-anchor="middle">saram@github: ~$ ./activity.sh</text><defs><linearGradient id="acg" x1="0" y1="0" x2="0" y2="1"><stop offset="0" stop-color="#39d353" stop-opacity="0.45"/><stop offset="1" stop-color="#39d353" stop-opacity="0"/></linearGradient></defs><line x1="18.0" y1="52.0" x2="477.0" y2="52.0" stroke="#30363d" stroke-width="0.5"/><line x1="18.0" y1="101.5" x2="477.0" y2="101.5" stroke="#30363d" stroke-width="0.5"/><line x1="18.0" y1="151.0" x2="477.0" y2="151.0" stroke="#30363d" stroke-width="0.5"/><polygon points="18.0,151.0 18.0,148.8 35.7,90.5 53.3,141.1 71.0,133.4 88.6,108.1 106.3,104.8 123.9,124.6 141.6,151.0 159.2,134.5 176.9,133.4 194.5,125.7 212.2,137.8 229.8,142.2 247.5,130.1 265.2,104.8 282.8,52.0 300.5,138.9 318.1,132.3 335.8,101.5 353.4,109.2 371.1,77.3 388.7,125.7 406.4,143.3 424.0,120.2 441.7,133.4 459.3,137.8 477.0,144.4 477.0,151.0" fill="url(#acg)"/><polyline points="18.0,148.8 35.7,90.5 53.3,141.1 71.0,133.4 88.6,108.1 106.3,104.8 123.9,124.6 141.6,151.0 159.2,134.5 176.9,133.4 194.5,125.7 212.2,137.8 229.8,142.2 247.5,130.1 265.2,104.8 282.8,52.0 300.5,138.9 318.1,132.3 335.8,101.5 353.4,109.2 371.1,77.3 388.7,125.7 406.4,143.3 424.0,120.2 441.7,133.4 459.3,137.8 477.0,144.4" fill="none" stroke="#39d353" stroke-width="2" stroke-linejoin="round"/><circle cx="477.0" cy="144.4" r="3.5" fill="#39d353"/><text x="18.0" y="171.0" fill="#7d8590" font-size="10.5">26 weeks</text><text x="477.0" y="171.0" fill="#7d8590" font-size="10.5" text-anchor="end">peak 90/week</text></svg>