<svg xmlns="http://www.w3.org/2000/svg" width="495" height="195" viewBox="0 0 495 195" font-family="ui-monospace,SFMono-Regular,Menlo,Consolas,monospace" role="img"><defs><linearGradient id="bgac" x1="0" y1="0" x2="0" y2="1"><stop offset="0" stop-color="#111722"/><stop offset="1" stop-color="#0d1117"/></linearGradient></defs><rect width="495" height="195" rx="12" fill="url(#bgac)"/><rect x="0.5" y="0.5" width="494" height="194" rx="12" fill="none" stroke="#30363d" stroke-width="1"/><line x1="0" y1="28.0" x2="495" y2="28.0" stroke="#30363d"/><circle cx="18" cy="14.0" r="4.5" fill="#ff5f56"/><circle cx="33" cy="14.0" r="4.5" fill="#ffbd2e"/><circle cx="48" cy="14.0" r="4.5" fill="#27c93f"/><text x="247.5" y="17.9" fill="#7d8590" font-size="11.5" text-anchor="middle">saram@github: ~$ ./activity.sh</text><defs><linearGradient id="acg" x1="0" y1="0" x2="0" y2="1"><stop offset="0" stop-color="#39d353" stop-opacity="0.45"/><stop offset="1" stop-color="#39d353" stop-opacity="0"/></linearGradient></defs><line x1="18.0" y1="52.0" x2="477.0" y2="52.0" stroke="#30363d" stroke-width="0.5"/><line x1="18.0" y1="101.5" x2="477.0" y2="101.5" stroke="#30363d" stroke-width="0.5"/><line x1="18.0" y1="151.0" x2="477.0" y2="151.0" stroke="#30363d" stroke-width="0.5"/><polygon points="18.0,151.0 18.0,120.2 35.7,141.1 53.3,133.4 71.0,108.1 88.6,104.8 106.3,124.6 123.9,151.0 141.6,134.5 159.2,133.4 176.9,125.7 194.5,137.8 212.2,142.2 229.8,130.1 247.5,104.8 265.2,52.0 282.8,138.9 300.5,132.3 318.1,101.5 335.8,109.2 353.4,77.3 371.1,125.7 388.7,143.3 406.4,120.2 424.0,133.4 441.7,137.8 459.3,144.4 477.0,151.0 477.0,151.0" fill="url(#acg)"/><polyline points="18.0,120.2 35.7,141.1 53.3,133.4 71.0,108.1 88.6,104.8 106.3,124.6 123.9,151.0 141.6,134.5 159.2,133.4 176.9,125.7 194.5,137.8 212.2,142.2 229.8,130.1 247.5,104.8 265.2,52.0 282.8,138.9 300.5,132.3 318.1,101.5 335.8,109.2 353.4,77.3 371.1,125.7 388.7,143.3 406.4,120.2 424.0,133.4 441.7,137.8 459.3,144.4 477.0,151.0" fill="none" stroke="#39d353" stroke-width="2" stroke-linejoin="round"/><circle cx="477.0" cy="151.0" r="3.5" fill="#39d353"/><text x="18.0" y="171.0" fill="#7d8590" font-size="10.5">26 weeks</text><text x="477.0" y="171.0" fill="#7d8590" font-size="10.5" text-anchor="end">peak 90/week</text></svg>