<svg xmlns="http://www.w3.org/2000/svg" width="495" height="195" viewBox="0 0 495 195" font-family="ui-monospace,SFMono-Regular,Menlo,Consolas,monospace" role="img"><defs><linearGradient id="bgac" x1="0" y1="0" x2="0" y2="1"><stop offset="0" stop-color="#111722"/><stop offset="1" stop-color="#0d1117"/></linearGradient></defs><rect width="495" height="195" rx="12" fill="url(#bgac)"/><rect x="0.5" y="0.5" width="494" height="194" rx="12" fill="none" stroke="#30363d" stroke-width="1"/><line x1="0" y1="28.0" x2="495" y2="28.0" stroke="#30363d"/><circle cx="18" cy="14.0" r="4.5" fill="#ff5f56"/><circle cx="33" cy="14.0" r="4.5" fill="#ffbd2e"/><circle cx="48" cy="14.0" r="4.5" fill="#27c93f"/><text x="247.5" y="17.9" fill="#7d8590" font-size="11.5" text-anchor="middle">saram@github: ~$ ./activity.sh</text><defs><linearGradient id="acg" x1="0" y1="0" x2="0" y2="1"><stop offset="0" stop-color="#39d353" stop-opacity="0.45"/><stop offset="1" stop-color="#39d353" stop-opacity="0"/></linearGradient></defs><line x1="18.0" y1="52.0" x2="477.0" y2="52.0" stroke="#30363d" stroke-width="0.5"/><line x1="18.0" y1="101.5" x2="477.0" y2="101.5" stroke="#30363d" stroke-width="0.5"/><line x1="18.0" y1="151.0" x2="477.0" y2="151.0" stroke="#30363d" stroke-width="0.5"/><polygon points="18.0,151.0 18.0,151.0 35.7,151.0 53.3,149.9 71.0,148.8 88.6,151.0 106.3,149.9 123.9,151.0 141.6,147.7 159.2,145.5 176.9,90.5 194.5,141.1 212.2,133.4 229.8,108.1 247.5,104.8 265.2,124.6 282.8,151.0 300.5,134.5 318.1,133.4 335.8,125.7 353.4,137.8 371.1,142.2 388.7,130.1 406.4,104.8 424.0,52.0 441.7,138.9 459.3,132.3 477.0,103.7 477.0,151.0" fill="url(#acg)"/><polyline points="18.0,151.0 35.7,151.0 53.3,149.9 71.0,148.8 88.6,151.0 106.3,149.9 123.9,151.0 141.6,147.7 159.2,145.5 176.9,90.5 194.5,141.1 212.2,133.4 229.8,108.1 247.5,104.8 265.2,124.6 282.8,151.0 300.5,134.5 318.1,133.4 335.8,125.7 353.4,137.8 371.1,142.2 388.7,130.1 406.4,104.8 424.0,52.0 441.7,138.9 459.3,132.3 477.0,103.7" fill="none" stroke="#39d353" stroke-width="2" stroke-linejoin="round"/><circle cx="477.0" cy="103.7" r="3.5" fill="#39d353"/><text x="18.0" y="171.0" fill="#7d8590" font-size="10.5">26 weeks</text><text x="477.0" y="171.0" fill="#7d8590" font-size="10.5" text-anchor="end">peak 90/week</text></svg>